<svg width="150" height="150" viewBox="0 0 150 150" fill="none" xmlns="http://www.w3.org/2000/svg">
<path fill-rule="evenodd" clip-rule="evenodd" d="M120.107 69.0995C119.136 61.7958 116.376 54.841 112.071 48.8459C107.765 42.8507 102.046 37.9985 95.4142 34.7154C88.7827 31.4323 81.4421 29.8186 74.0371 30.0162C66.632 30.2137 59.389 32.2164 52.944 35.8484C46.4991 39.4804 41.0493 44.6306 37.0733 50.8467C33.0973 57.0628 30.7166 64.1547 30.1404 71.4996C29.5642 78.8446 30.81 86.2179 33.7685 92.9721C36.727 99.7263 41.3076 105.655 47.1082 110.237C51.5491 108.27 56.4048 105.974 61.5621 103.399C56.3458 100.914 51.9136 97.055 48.7464 92.2416C45.5792 87.4281 43.798 81.8439 43.5961 76.0949C43.3942 70.3459 44.7793 64.6516 47.6011 59.6301C50.4228 54.6086 54.5735 50.4516 59.6028 47.6101C64.632 44.7687 70.3476 43.3513 76.1294 43.5118C81.9113 43.6724 87.5385 45.4047 92.4005 48.5208C97.2624 51.637 101.173 56.0178 103.709 61.1881C106.245 66.3584 107.308 72.1206 106.784 77.8495C111.56 74.837 116.026 71.9036 120.107 69.0995ZM120.488 74.1995C115.917 77.562 110.852 81.0453 105.406 84.5578C102.973 92.1462 97.7399 98.5362 90.76 102.441C83.7801 106.346 75.5718 107.476 67.7878 105.604C61.8177 108.458 56.1534 110.929 50.9668 112.974C57.8653 117.338 65.8238 119.761 73.9961 119.986C82.1685 120.211 90.2495 118.229 97.3803 114.252C104.511 110.275 110.425 104.451 114.494 97.3985C118.563 90.3461 120.634 82.329 120.488 74.1995V74.1995Z" fill="url(#paint0_linear_736_157)"/>
<path fill-rule="evenodd" clip-rule="evenodd" d="M128.381 109.574C129.408 109.575 130.412 109.273 131.266 108.706C132.12 108.14 132.786 107.334 133.18 106.39C133.573 105.447 133.677 104.409 133.477 103.407C133.277 102.406 132.783 101.485 132.057 100.763C131.332 100.041 130.407 99.5485 129.4 99.3489C128.393 99.1494 127.349 99.2514 126.4 99.642C125.451 100.033 124.64 100.694 124.07 101.543C123.499 102.392 123.195 103.391 123.195 104.412C123.195 105.78 123.741 107.093 124.713 108.061C125.686 109.029 127.005 109.573 128.381 109.574Z" fill="#00CCF5"/>
<path fill-rule="evenodd" clip-rule="evenodd" d="M122.784 37.5995C123.396 37.5995 123.995 37.4189 124.504 37.0805C125.013 36.7422 125.41 36.2613 125.644 35.6986C125.879 35.136 125.94 34.5169 125.821 33.9196C125.701 33.3223 125.406 32.7736 124.973 32.343C124.54 31.9124 123.989 31.6191 123.388 31.5003C122.787 31.3815 122.165 31.4425 121.599 31.6755C121.033 31.9086 120.55 32.3032 120.21 32.8096C119.869 33.316 119.688 33.9113 119.688 34.5203C119.687 34.9248 119.767 35.3255 119.922 35.6993C120.078 36.0731 120.306 36.4128 120.593 36.6988C120.881 36.9849 121.223 37.2116 121.598 37.3662C121.974 37.5207 122.377 37.6 122.784 37.5995V37.5995Z" fill="#00CCF5"/>
<path fill-rule="evenodd" clip-rule="evenodd" d="M18.6067 89.9161C19.4234 89.9161 20.2218 89.6751 20.9007 89.2236C21.5796 88.772 22.1085 88.1303 22.4205 87.3797C22.7324 86.629 22.8134 85.8031 22.6532 85.0067C22.4929 84.2102 22.0986 83.4789 21.5202 82.9055C20.9419 82.332 20.2054 81.9421 19.4041 81.7851C18.6027 81.6282 17.7726 81.7113 17.0188 82.0238C16.2649 82.3364 15.6213 82.8643 15.1694 83.5409C14.7174 84.2175 14.4775 85.0122 14.48 85.8245C14.4833 86.9108 14.9196 87.9515 15.6931 88.7185C16.4667 89.4854 17.5144 89.9161 18.6067 89.9161V89.9161Z" fill="#00CCF5"/>
<path fill-rule="evenodd" clip-rule="evenodd" d="M88.2997 65.7411C92.7574 63.2911 97.0978 60.9661 101.287 58.8203C101.442 59.0703 101.61 59.3661 101.786 59.6995C97.634 61.8578 93.2937 64.1911 88.836 66.6453L88.2997 65.7411ZM146.199 43.8786C144.209 40.4495 132.143 44.0911 115.067 52.0286C115.226 52.2911 115.385 52.562 115.536 52.837C131.896 45.0911 143.313 41.362 144.762 44.362C147.041 48.287 120.882 67.5453 86.36 87.3745C51.8381 107.204 21.9834 120.095 19.7043 116.17C18.4056 113.837 24.8281 107.479 30.5972 102.42C22.2893 109.087 17.9322 114.224 19.365 116.691C22.6161 122.295 54.0837 111.274 89.1125 91.1745C124.141 71.0745 149.467 49.4828 146.199 43.8786Z" fill="#00CCF5"/>
<path d="M84.1982 68.9995C83.4601 67.7397 83.1841 66.2642 83.4175 64.8248C83.6508 63.3853 84.379 62.0708 85.4779 61.1056C86.5767 60.1404 87.9782 59.5841 89.4433 59.5316C90.9085 59.4791 92.3465 59.9337 93.5124 60.8178C94.6782 61.7019 95.4996 62.9608 95.8364 64.3799C96.1733 65.7989 96.0048 67.2903 95.3597 68.5996C94.7146 69.909 93.6328 70.9552 92.2988 71.56C90.9648 72.1648 89.4611 72.2906 88.0442 71.9161C87.2374 71.7157 86.4801 71.3537 85.8188 70.8522C85.1575 70.3507 84.6061 69.7202 84.1982 68.9995V68.9995Z" fill="#FA00E9"/>
<defs>
<linearGradient id="paint0_linear_736_157" x1="27.2885" y1="27.7499" x2="119.993" y2="120.505" gradientUnits="userSpaceOnUse">
<stop offset="0.09375" stop-color="#FA00E9"/>
<stop offset="1" stop-color="#3860FF"/>
</linearGradient>
</defs>
</svg>
